<svg width="531" height="459" viewBox="0 0 531 459" fill="none" xmlns="http://www.w3.org/2000/svg">
<path d="M410.217 166.629C467.296 119.882 542.968 195.554 496.221 252.633C475.363 278.102 475.363 314.748 496.221 340.217C542.968 397.296 467.297 472.968 410.217 426.221C384.748 405.363 348.102 405.363 322.633 426.221C265.554 472.968 189.882 397.297 236.629 340.217C257.487 314.748 257.487 278.102 236.629 252.633C189.882 195.554 265.554 119.882 322.633 166.629C348.102 187.487 384.748 187.487 410.217 166.629Z" fill="black" stroke="black" stroke-width="8"/>
<path d="M381.367 143.392C438.447 96.6445 514.119 172.316 467.371 229.396C446.513 254.865 446.513 291.511 467.371 316.979C514.119 374.059 438.447 449.731 381.367 402.984C355.898 382.125 319.253 382.125 293.784 402.984C236.704 449.731 161.032 374.059 207.779 316.979C228.638 291.511 228.638 254.865 207.779 229.396C161.032 172.316 236.704 96.6444 293.784 143.392C319.253 164.25 355.898 164.25 381.367 143.392Z" fill="#EC6A36" stroke="black" stroke-width="8"/>
<path fill-rule="evenodd" clip-rule="evenodd" d="M272.399 80.0331C243.121 29.3223 169.926 29.3223 140.649 80.0332L58.3044 222.657C29.0265 273.368 65.624 336.757 124.18 336.757H288.868C347.424 336.757 384.021 273.368 354.743 222.657L272.399 80.0331ZM231.014 158.961C218.721 138.24 187.989 138.24 175.697 158.961L141.124 217.238C128.831 237.958 144.197 263.859 168.782 263.859H237.928C262.514 263.859 277.88 237.958 265.587 217.238L231.014 158.961Z" fill="black" stroke="black" stroke-width="8"/>
<path fill-rule="evenodd" clip-rule="evenodd" d="M242.399 55.0331C213.121 4.32225 139.926 4.32232 110.649 55.0332L28.3044 197.657C-0.973503 248.368 35.624 311.757 94.1798 311.757H258.868C317.424 311.757 354.021 248.368 324.743 197.657L242.399 55.0331ZM201.014 133.961C188.721 113.24 157.989 113.24 145.697 133.961L111.124 192.238C98.831 212.958 114.197 238.859 138.782 238.859H207.928C232.514 238.859 247.88 212.958 235.587 192.238L201.014 133.961Z" fill="white" stroke="black" stroke-width="8"/>
</svg>
